<svg width="221" height="61" viewBox="0 0 221 61" fill="none" xmlns="http://www.w3.org/2000/svg">
<path d="M26.2057 34.6963L12.7536 44.5801C12.2438 42.7298 12.2627 40.6813 12.8102 38.4346L12.8669 38.2363H16.0104V38.208C17.0677 38.1891 18.1628 38.0475 19.2956 37.7832C20.3529 37.5566 21.4668 37.2168 22.6374 36.7637C23.808 36.2917 24.9974 35.6025 26.2057 34.6963ZM24.0251 32.7139C19.0029 30.0329 17.0772 26.3418 18.2477 21.6406C18.7575 19.5638 19.7015 17.7891 21.0798 16.3164C22.458 14.8249 24.0628 13.6071 25.8942 12.6631C27.7256 11.7191 29.6797 11.0299 31.7565 10.5957C33.8522 10.1426 35.863 9.91602 37.7887 9.91602C39.016 9.91602 40.2621 10.0199 41.527 10.2275C42.792 10.4163 43.9909 10.7467 45.1237 11.2188C46.2754 11.6908 47.3138 12.3327 48.2389 13.1445C49.1641 13.9375 49.9004 14.9382 50.4479 16.1465C50.5046 16.2409 50.5518 16.3447 50.5895 16.458C50.6273 16.5524 50.6556 16.6468 50.6745 16.7412L38.1286 25.9736C38.6384 25.5205 39.0348 25.0579 39.318 24.5859C39.6201 24.1139 39.8373 23.6514 39.9694 23.1982L40.0544 22.8584C40.4697 21.2725 40.2809 20.0641 39.488 19.2334C38.6761 18.3649 37.4111 17.9307 35.693 17.9307C35.0511 17.9307 34.3714 18.0062 33.654 18.1572C32.9365 18.2894 32.2568 18.516 31.6149 18.8369C30.9919 19.139 30.4443 19.5449 29.9723 20.0547C29.5003 20.5456 29.1699 21.1497 28.9811 21.8672C28.7546 22.8112 29.0755 23.6702 29.944 24.4443C30.9069 25.2751 32.7194 26.1341 35.3815 27.0215C35.5514 27.0781 35.7025 27.1348 35.8346 27.1914C35.9857 27.2292 36.1273 27.2764 36.2595 27.333L27.027 34.1016C26.4417 33.875 25.9037 33.6484 25.4128 33.4219C24.9219 33.1764 24.4593 32.9404 24.0251 32.7139ZM44.6139 23.1982L57.1598 13.9941C57.0466 14.1263 56.7917 14.4095 56.3952 14.8438C56.0176 15.278 55.5928 15.7689 55.1208 16.3164C54.6488 16.8451 54.1768 17.402 53.7048 17.9873C53.2328 18.5537 52.8552 19.0352 52.572 19.4316C52.2699 19.8659 52.0055 20.3096 51.779 20.7627C51.5713 21.1969 51.4014 21.5934 51.2692 21.9521C51.1182 22.3675 50.9955 22.7734 50.9011 23.1699H50.7878V23.1982H44.6139ZM41.9802 29.9951C46.0772 32.6383 47.5498 36.2633 46.3981 40.8701C45.8695 43.0225 44.9632 44.8538 43.6794 46.3643C42.3955 47.8558 40.8851 49.0641 39.1481 49.9893C37.43 50.9144 35.5609 51.5846 33.5407 52C31.5205 52.4154 29.5003 52.623 27.4802 52.623C26.4984 52.623 25.4694 52.557 24.3932 52.4248C23.3171 52.3115 22.2503 52.1133 21.193 51.8301C20.1358 51.5469 19.1257 51.1693 18.1628 50.6973C17.1999 50.2253 16.3314 49.6494 15.5573 48.9697C15.3307 48.8564 15.0475 48.7998 14.7077 48.7998C14.2168 48.7998 13.6315 48.9036 12.9518 49.1113C12.2721 49.3001 11.5453 49.5645 10.7712 49.9043C10.016 50.2253 9.22299 50.5934 8.39227 51.0088C7.56154 51.4242 6.75913 51.8584 5.98504 52.3115C4.13478 53.3311 2.19956 54.4922 0.179375 55.7949L23.6286 38.6045C23.1188 40.738 23.2887 42.2861 24.1384 43.249C25.0257 44.2497 26.7533 44.75 29.321 44.75C30.0007 44.75 30.6709 44.6839 31.3317 44.5518C31.9925 44.4007 32.6061 44.1742 33.1725 43.8721C33.7578 43.57 34.2582 43.1735 34.6735 42.6826C35.1078 42.1917 35.4098 41.5876 35.5798 40.8701C35.9196 39.5107 35.693 38.4535 34.9001 37.6982C34.0693 36.9053 32.4362 36.084 30.0007 35.2344C29.5853 35.1022 29.1888 34.9606 28.8112 34.8096L38.0436 28.0127C38.8366 28.3337 39.554 28.6641 40.196 29.0039C40.8568 29.3249 41.4515 29.6553 41.9802 29.9951ZM85.3114 2.75098L54.0457 25.7188C54.6499 25.2279 55.2635 24.6992 55.8866 24.1328C56.5285 23.5664 57.1138 23 57.6424 22.4336C58.1899 21.8483 58.6525 21.3008 59.0301 20.791C59.4266 20.2624 59.6909 19.8187 59.8231 19.46L62.0887 10.3125H66.7049C67.0825 10.2936 67.6112 10.2559 68.2909 10.1992C68.9705 10.1237 69.7258 10.001 70.5565 9.83105C71.3872 9.64225 72.2651 9.39681 73.1903 9.09473C74.1343 8.79264 75.0594 8.39616 75.9657 7.90527C76.9852 7.33887 77.9953 6.7819 78.9959 6.23438C80.0155 5.66797 80.95 5.14876 81.7996 4.67676C82.6681 4.20475 83.4139 3.79883 84.037 3.45898C84.66 3.10026 85.0848 2.86426 85.3114 2.75098ZM56.8211 31.4961C56.8778 31.1185 56.9155 30.7598 56.9344 30.4199C56.9722 30.0801 56.9627 29.778 56.9061 29.5137C56.8495 29.2493 56.7362 29.0417 56.5662 28.8906C56.4152 28.7396 56.1886 28.6641 55.8866 28.6641C55.4712 28.6641 54.9614 28.7962 54.3573 29.0605C53.4888 29.4382 52.6864 29.8063 51.95 30.165C51.2137 30.5238 50.5623 30.8353 49.9959 31.0996C49.354 31.4206 48.7593 31.7321 48.2118 32.0342L71.8309 14.6455L68.6024 27.7295L85.1981 10.3125H98.6786L79.4491 28.7773C79.9211 30.0046 80.3459 31.109 80.7235 32.0908C80.95 32.6761 81.1294 33.1387 81.2616 33.4785C81.3937 33.8184 81.5164 34.1393 81.6297 34.4414C81.743 34.7246 81.8374 34.9701 81.9129 35.1777C81.9885 35.3665 82.0262 35.4704 82.0262 35.4893C82.2717 36.0934 82.6115 36.6126 83.0457 37.0469C83.48 37.4622 84.103 37.6699 84.9149 37.6699C85.4435 37.6699 86.076 37.5472 86.8123 37.3018C87.5487 37.0563 88.4077 36.6504 89.3895 36.084C89.3706 36.084 89.0402 36.32 88.3983 36.792C87.7752 37.2451 86.9539 37.8493 85.9344 38.6045C84.9149 39.3408 83.7443 40.1904 82.4227 41.1533C81.12 42.1162 79.7889 43.098 78.4295 44.0986C75.2388 46.4398 71.6138 49.1019 67.5545 52.085C67.6678 51.9717 67.8849 51.7546 68.2059 51.4336C68.5457 51.0938 68.9233 50.6973 69.3387 50.2441C69.7541 49.7721 70.1789 49.2624 70.6131 48.7148C71.0474 48.1484 71.4344 47.582 71.7743 47.0156C72.133 46.4303 72.3973 45.8639 72.5672 45.3164C72.756 44.7689 72.8032 44.2686 72.7088 43.8154L70.2733 36.792L65.3172 40.9268L62.6268 51.8584H51.8084L56.8211 31.4961ZM59.4832 60.043L84.4051 41.748L88.2567 51.8584H75.7108C75.4465 51.8773 74.8989 51.9811 74.0682 52.1699C73.2564 52.3587 72.1707 52.7363 70.8114 53.3027C69.452 53.888 67.8189 54.7093 65.912 55.7666C64.0239 56.8428 61.881 58.2682 59.4832 60.043ZM133.627 13.7393C136.025 15.9671 136.714 19.1107 135.694 23.1699C134.977 26.0775 133.778 28.4753 132.098 30.3633C130.417 32.2324 128.199 33.7523 125.442 34.9229L128.529 45.543V45.5146L130.427 52H118.589L114.652 37.5283H109.498L108.195 42.7393C108.214 42.8525 108.261 42.9753 108.337 43.1074C108.431 43.2207 108.62 43.2773 108.903 43.2773C109.13 43.2773 109.441 43.2207 109.838 43.1074C110.234 42.9753 110.754 42.7676 111.396 42.4844C111.377 42.4844 111.178 42.626 110.801 42.9092C110.423 43.1735 109.932 43.5322 109.328 43.9854C108.724 44.4385 108.025 44.9482 107.232 45.5146C106.458 46.0811 105.665 46.6569 104.854 47.2422C102.965 48.6393 100.813 50.2253 98.3965 52H95.083L99.9258 32.374C99.9069 32.2041 99.8219 31.9964 99.6709 31.751C99.5387 31.4867 99.2272 31.3545 98.7363 31.3545C98.5098 31.3545 98.236 31.3923 97.915 31.4678C97.5941 31.5433 97.2165 31.6755 96.7822 31.8643C95.9326 32.2419 95.1302 32.61 94.375 32.9688C93.6387 33.3275 92.9873 33.639 92.4209 33.9033C91.779 34.2243 91.1842 34.5358 90.6367 34.8379L101.257 27.0498V27.0215L123.828 10.4541C124.678 10.4919 125.546 10.5674 126.434 10.6807C127.321 10.7939 128.189 10.9827 129.039 11.2471C129.889 11.4925 130.701 11.8229 131.475 12.2383C132.268 12.6348 132.985 13.1351 133.627 13.7393ZM124.706 23.9346C125.121 22.2354 124.98 20.9232 124.281 19.998C123.602 19.054 122.337 18.582 120.486 18.582H114.199L111.537 29.3438H117.683C119.514 29.3438 121.024 28.8906 122.214 27.9844C123.422 27.0592 124.253 25.7093 124.706 23.9346ZM130.483 3.57227L101.852 24.5859L105.363 10.4258H114.228C114.718 10.3691 115.275 10.2936 115.898 10.1992C116.54 10.0859 117.211 9.94434 117.909 9.77441C118.627 9.58561 119.354 9.35905 120.09 9.09473C120.845 8.81152 121.581 8.48112 122.299 8.10352C123.073 7.66927 123.847 7.23503 124.621 6.80078C125.414 6.36654 126.169 5.95117 126.887 5.55469C127.604 5.1582 128.265 4.79004 128.869 4.4502C129.492 4.11035 130.03 3.81771 130.483 3.57227ZM89.5322 60.5811L106.978 47.7236L105.986 52.0283C104.702 52.2926 103.22 52.7835 101.54 53.501C100.03 54.1429 98.2832 55.0114 96.3008 56.1064C94.3372 57.2015 92.0811 58.693 89.5322 60.5811ZM175.061 13.7393C177.458 15.9671 178.148 19.1107 177.128 23.1699C176.411 26.0775 175.212 28.4753 173.531 30.3633C171.851 32.2324 169.633 33.7523 166.876 34.9229L169.963 45.543V45.5146L171.861 52H160.023L156.086 37.5283H150.932L149.629 42.7393C149.648 42.8525 149.695 42.9753 149.771 43.1074C149.865 43.2207 150.054 43.2773 150.337 43.2773C150.564 43.2773 150.875 43.2207 151.272 43.1074C151.668 42.9753 152.187 42.7676 152.829 42.4844C152.81 42.4844 152.612 42.626 152.235 42.9092C151.857 43.1735 151.366 43.5322 150.762 43.9854C150.158 44.4385 149.459 44.9482 148.666 45.5146C147.892 46.0811 147.099 46.6569 146.287 47.2422C144.399 48.6393 142.247 50.2253 139.83 52H136.517L141.36 32.374C141.341 32.2041 141.256 31.9964 141.105 31.751C140.972 31.4867 140.661 31.3545 140.17 31.3545C139.944 31.3545 139.67 31.3923 139.349 31.4678C139.028 31.5433 138.65 31.6755 138.216 31.8643C137.366 32.2419 136.564 32.61 135.809 32.9688C135.072 33.3275 134.421 33.639 133.855 33.9033C133.213 34.2243 132.618 34.5358 132.07 34.8379L142.691 27.0498V27.0215L165.262 10.4541C166.111 10.4919 166.98 10.5674 167.867 10.6807C168.755 10.7939 169.623 10.9827 170.473 11.2471C171.322 11.4925 172.134 11.8229 172.908 12.2383C173.701 12.6348 174.419 13.1351 175.061 13.7393ZM166.14 23.9346C166.555 22.2354 166.414 20.9232 165.715 19.998C165.035 19.054 163.77 18.582 161.92 18.582H155.633L152.971 29.3438H159.116C160.948 29.3438 162.458 28.8906 163.648 27.9844C164.856 27.0592 165.687 25.7093 166.14 23.9346ZM171.917 3.57227L143.285 24.5859L146.797 10.4258H155.661C156.152 10.3691 156.709 10.2936 157.332 10.1992C157.974 10.0859 158.644 9.94434 159.343 9.77441C160.06 9.58561 160.787 9.35905 161.524 9.09473C162.279 8.81152 163.015 8.48112 163.733 8.10352C164.507 7.66927 165.281 7.23503 166.055 6.80078C166.848 6.36654 167.603 5.95117 168.32 5.55469C169.038 5.1582 169.699 4.79004 170.303 4.4502C170.926 4.11035 171.464 3.81771 171.917 3.57227ZM130.966 60.5811L148.411 47.7236L147.42 52.0283C146.136 52.2926 144.654 52.7835 142.974 53.501C141.463 54.1429 139.717 55.0114 137.735 56.1064C135.771 57.2015 133.515 58.693 130.966 60.5811ZM188.174 43.9854L208.197 29.2588C207.309 30.2406 206.45 31.194 205.619 32.1191C205.147 32.6667 204.751 33.1292 204.43 33.5068C204.109 33.8656 203.788 34.2432 203.467 34.6396C203.146 35.0173 202.835 35.3949 202.533 35.7725C202.249 36.1312 202.004 36.4616 201.796 36.7637C201.23 37.5755 200.777 38.3874 200.437 39.1992C200.116 39.9922 199.88 40.6341 199.729 41.125L197.038 51.9717H186.192L188.174 43.9854ZM193.668 10.3691L174.241 24.6426C174.41 24.4727 174.788 24.0573 175.373 23.3965C175.978 22.7357 176.648 21.9805 177.384 21.1309C178.12 20.2812 178.857 19.4128 179.593 18.5254C180.329 17.638 180.915 16.8734 181.349 16.2314C181.689 15.7406 181.991 15.2497 182.255 14.7588C182.52 14.249 182.746 13.7676 182.935 13.3145C183.143 12.8613 183.312 12.446 183.445 12.0684C183.577 11.6719 183.671 11.3415 183.728 11.0771L183.926 10.3691H193.668ZM202.504 10.3691H220.119L218.109 18.5254H205.308L202.136 31.3545L184.549 44.2686C185.399 43.4567 186.182 42.626 186.9 41.7764C187.334 41.2855 187.683 40.8607 187.948 40.502C188.212 40.1432 188.467 39.7656 188.712 39.3691C188.977 38.9727 189.213 38.5762 189.42 38.1797C189.628 37.7643 189.788 37.3584 189.902 36.9619L194.461 18.5254H185.257L210.009 0.34375C208.121 2.04297 206.526 3.59115 205.223 4.98828C204.43 5.81901 203.826 6.48926 203.41 6.99902C203.014 7.50879 202.693 7.99967 202.448 8.47168C202.202 8.9248 202.061 9.33073 202.023 9.68945C202.004 10.0293 202.164 10.2559 202.504 10.3691Z" fill="#EFEFEF"/>
</svg>
