<svg width="107" height="30" viewBox="0 0 107 30" fill="none" xmlns="http://www.w3.org/2000/svg">
<path d="M13.3407 16.6465L6.84656 21.418C6.60047 20.5247 6.60958 19.5358 6.87391 18.4512L6.90125 18.3555H8.41883V18.3418C8.92924 18.3327 9.45789 18.2643 10.0048 18.1367C10.5152 18.0273 11.0529 17.8633 11.618 17.6445C12.1831 17.4167 12.7574 17.084 13.3407 16.6465ZM12.288 15.6895C9.86349 14.3952 8.9338 12.6133 9.49891 10.3438C9.745 9.34115 10.2007 8.48438 10.8661 7.77344C11.5315 7.05339 12.3062 6.46549 13.1903 6.00977C14.0744 5.55404 15.0178 5.22135 16.0204 5.01172C17.0321 4.79297 18.0028 4.68359 18.9325 4.68359C19.5249 4.68359 20.1265 4.73372 20.7372 4.83398C21.3479 4.92513 21.9266 5.08464 22.4735 5.3125C23.0295 5.54036 23.5308 5.85026 23.9774 6.24219C24.424 6.625 24.7795 7.10807 25.0438 7.69141C25.0712 7.73698 25.094 7.78711 25.1122 7.8418C25.1304 7.88737 25.1441 7.93294 25.1532 7.97852L19.0966 12.4355C19.3427 12.2168 19.5341 11.9935 19.6708 11.7656C19.8166 11.5378 19.9214 11.3145 19.9852 11.0957L20.0262 10.9316C20.2268 10.166 20.1356 9.58268 19.7528 9.18164C19.3609 8.76237 18.7502 8.55273 17.9208 8.55273C17.6109 8.55273 17.2828 8.58919 16.9364 8.66211C16.5901 8.72591 16.2619 8.83529 15.952 8.99023C15.6512 9.13607 15.3869 9.33203 15.1591 9.57812C14.9312 9.8151 14.7717 10.1068 14.6805 10.4531C14.5712 10.9089 14.7261 11.3236 15.1454 11.6973C15.6102 12.0983 16.4852 12.513 17.7704 12.9414C17.8524 12.9688 17.9253 12.9961 17.9891 13.0234C18.0621 13.0417 18.1304 13.0645 18.1942 13.0918L13.7372 16.3594C13.4546 16.25 13.1949 16.1406 12.9579 16.0312C12.7209 15.9128 12.4976 15.7988 12.288 15.6895ZM22.2274 11.0957L28.2841 6.65234C28.2294 6.71615 28.1063 6.85286 27.9149 7.0625C27.7326 7.27214 27.5276 7.50911 27.2997 7.77344C27.0718 8.02865 26.844 8.29753 26.6161 8.58008C26.3882 8.85352 26.2059 9.08594 26.0692 9.27734C25.9234 9.48698 25.7958 9.70117 25.6864 9.91992C25.5861 10.1296 25.5041 10.321 25.4403 10.4941C25.3674 10.6947 25.3081 10.8906 25.2626 11.082H25.2079V11.0957H22.2274ZM20.9559 14.377C22.9338 15.653 23.6447 17.403 23.0887 19.627C22.8335 20.666 22.396 21.5501 21.7762 22.2793C21.1565 22.9993 20.4273 23.5827 19.5887 24.0293C18.7593 24.4759 17.857 24.7995 16.8817 25C15.9065 25.2005 14.9312 25.3008 13.9559 25.3008C13.482 25.3008 12.9852 25.2689 12.4657 25.2051C11.9462 25.1504 11.4312 25.0547 10.9208 24.918C10.4104 24.7812 9.92273 24.599 9.45789 24.3711C8.99305 24.1432 8.57377 23.8652 8.20008 23.5371C8.0907 23.4824 7.95398 23.4551 7.78992 23.4551C7.55294 23.4551 7.27039 23.5052 6.94226 23.6055C6.61414 23.6966 6.26323 23.8242 5.88953 23.9883C5.52495 24.1432 5.14213 24.321 4.74109 24.5215C4.34005 24.722 3.95268 24.9316 3.57898 25.1504C2.68575 25.6426 1.75151 26.2031 0.776249 26.832L12.0966 18.5332C11.8505 19.5632 11.9325 20.3105 12.3427 20.7754C12.771 21.2585 13.605 21.5 14.8446 21.5C15.1727 21.5 15.4963 21.4681 15.8153 21.4043C16.1343 21.3314 16.4305 21.222 16.704 21.0762C16.9865 20.9303 17.2281 20.7389 17.4286 20.502C17.6382 20.265 17.7841 19.9733 17.8661 19.627C18.0302 18.9707 17.9208 18.4603 17.538 18.0957C17.1369 17.7129 16.3485 17.3164 15.1727 16.9062C14.9722 16.8424 14.7808 16.7741 14.5985 16.7012L19.0555 13.4199C19.4384 13.5749 19.7847 13.7344 20.0946 13.8984C20.4136 14.0534 20.7007 14.2129 20.9559 14.377ZM41.8745 1.22461L26.7807 12.3125C27.0724 12.0755 27.3686 11.8203 27.6694 11.5469C27.9793 11.2734 28.2618 11 28.517 10.7266C28.7814 10.444 29.0047 10.1797 29.187 9.93359C29.3784 9.67839 29.506 9.46419 29.5698 9.29102L30.6635 4.875H32.892C33.0743 4.86589 33.3295 4.84766 33.6577 4.82031C33.9858 4.78385 34.3504 4.72461 34.7514 4.64258C35.1524 4.55143 35.5763 4.43294 36.0229 4.28711C36.4786 4.14128 36.9252 3.94987 37.3627 3.71289C37.8549 3.43945 38.3426 3.17057 38.8256 2.90625C39.3178 2.63281 39.769 2.38216 40.1791 2.1543C40.5984 1.92643 40.9584 1.73047 41.2592 1.56641C41.56 1.39323 41.7651 1.2793 41.8745 1.22461ZM28.1205 15.1016C28.1479 14.9193 28.1661 14.7461 28.1752 14.582C28.1935 14.418 28.1889 14.2721 28.1616 14.1445C28.1342 14.0169 28.0795 13.9167 27.9975 13.8438C27.9246 13.7708 27.8152 13.7344 27.6694 13.7344C27.4689 13.7344 27.2228 13.7982 26.9311 13.9258C26.5118 14.1081 26.1245 14.2858 25.769 14.459C25.4135 14.6322 25.0991 14.7826 24.8256 14.9102C24.5157 15.0651 24.2286 15.2155 23.9643 15.3613L35.3666 6.9668L33.808 13.2832L41.8198 4.875H48.3276L39.0444 13.7891C39.2722 14.3815 39.4773 14.9147 39.6596 15.3887C39.769 15.6712 39.8556 15.8945 39.9194 16.0586C39.9832 16.2227 40.0424 16.3776 40.0971 16.5234C40.1518 16.6602 40.1974 16.7786 40.2338 16.8789C40.2703 16.9701 40.2885 17.0202 40.2885 17.0293C40.407 17.321 40.5711 17.5716 40.7807 17.7812C40.9903 17.9818 41.2911 18.082 41.683 18.082C41.9383 18.082 42.2436 18.0228 42.5991 17.9043C42.9545 17.7858 43.3692 17.5898 43.8432 17.3164C43.8341 17.3164 43.6746 17.4303 43.3647 17.6582C43.0639 17.877 42.6674 18.1686 42.1752 18.5332C41.683 18.8887 41.1179 19.2988 40.4799 19.7637C39.851 20.2285 39.2084 20.7025 38.5522 21.1855C37.0118 22.3158 35.2618 23.6009 33.3022 25.041C33.3569 24.9863 33.4617 24.8815 33.6166 24.7266C33.7807 24.5625 33.963 24.3711 34.1635 24.1523C34.364 23.9245 34.5691 23.6784 34.7787 23.4141C34.9884 23.1406 35.1752 22.8672 35.3393 22.5938C35.5125 22.3112 35.6401 22.0378 35.7221 21.7734C35.8133 21.5091 35.836 21.2676 35.7905 21.0488L34.6147 17.6582L32.2221 19.6543L30.9233 24.9316H25.7006L28.1205 15.1016ZM29.4057 28.8828L41.437 20.0508L43.2963 24.9316H37.2397C37.1121 24.9408 36.8478 24.9909 36.4467 25.082C36.0548 25.1732 35.5307 25.3555 34.8745 25.6289C34.2182 25.9115 33.4298 26.3079 32.5092 26.8184C31.5978 27.3379 30.5633 28.026 29.4057 28.8828ZM65.1992 6.5293C66.3568 7.60482 66.6895 9.1224 66.1973 11.082C65.8509 12.4857 65.2721 13.6432 64.4609 14.5547C63.6497 15.457 62.5788 16.1908 61.248 16.7559L62.7383 21.8828V21.8691L63.6543 25H57.9395L56.0391 18.0137H53.5508L52.9219 20.5293C52.931 20.584 52.9538 20.6432 52.9902 20.707C53.0358 20.7617 53.127 20.7891 53.2637 20.7891C53.373 20.7891 53.5234 20.7617 53.7148 20.707C53.9062 20.6432 54.1569 20.543 54.4668 20.4062C54.4577 20.4062 54.362 20.4746 54.1797 20.6113C53.9974 20.7389 53.7604 20.9121 53.4688 21.1309C53.1771 21.3496 52.8398 21.5957 52.457 21.8691C52.0833 22.1426 51.7005 22.4206 51.3086 22.7031C50.3971 23.3776 49.3581 24.1432 48.1914 25H46.5918L48.9297 15.5254C48.9206 15.4434 48.8796 15.3431 48.8066 15.2246C48.7428 15.097 48.5924 15.0332 48.3555 15.0332C48.2461 15.0332 48.1139 15.0514 47.959 15.0879C47.804 15.1243 47.6217 15.1882 47.4121 15.2793C47.002 15.4616 46.6146 15.6393 46.25 15.8125C45.8945 15.9857 45.5801 16.1361 45.3066 16.2637C44.9967 16.4186 44.7096 16.569 44.4453 16.7148L49.5723 12.9551V12.9414L60.4688 4.94336C60.8789 4.96159 61.2982 4.99805 61.7266 5.05273C62.1549 5.10742 62.5742 5.19857 62.9844 5.32617C63.3945 5.44466 63.7865 5.60417 64.1602 5.80469C64.543 5.99609 64.8893 6.23763 65.1992 6.5293ZM60.8926 11.4512C61.0931 10.6309 61.0247 9.9974 60.6875 9.55078C60.3594 9.09505 59.7487 8.86719 58.8555 8.86719H55.8203L54.5352 14.0625H57.502C58.3861 14.0625 59.1152 13.8438 59.6895 13.4062C60.2728 12.9596 60.6738 12.3079 60.8926 11.4512ZM63.6816 1.62109L49.8594 11.7656L51.5547 4.92969H55.834C56.071 4.90234 56.3398 4.86589 56.6406 4.82031C56.9505 4.76562 57.2741 4.69727 57.6113 4.61523C57.9577 4.52409 58.3086 4.41471 58.6641 4.28711C59.0286 4.15039 59.3841 3.99089 59.7305 3.80859C60.1042 3.59896 60.4779 3.38932 60.8516 3.17969C61.2344 2.97005 61.599 2.76953 61.9453 2.57812C62.2917 2.38672 62.6107 2.20898 62.9023 2.04492C63.2031 1.88086 63.4629 1.73958 63.6816 1.62109ZM43.9121 29.1426L52.334 22.9355L51.8555 25.0137C51.2357 25.1413 50.5202 25.3783 49.709 25.7246C48.9798 26.0345 48.1367 26.4538 47.1797 26.9824C46.2318 27.5111 45.1426 28.2311 43.9121 29.1426ZM85.2017 6.5293C86.3593 7.60482 86.692 9.1224 86.1998 11.082C85.8534 12.4857 85.2746 13.6432 84.4634 14.5547C83.6522 15.457 82.5813 16.1908 81.2505 16.7559L82.7408 21.8828V21.8691L83.6568 25H77.942L76.0416 18.0137H73.5533L72.9244 20.5293C72.9335 20.584 72.9563 20.6432 72.9927 20.707C73.0383 20.7617 73.1295 20.7891 73.2662 20.7891C73.3755 20.7891 73.5259 20.7617 73.7173 20.707C73.9087 20.6432 74.1594 20.543 74.4693 20.4062C74.4602 20.4062 74.3645 20.4746 74.1822 20.6113C73.9999 20.7389 73.7629 20.9121 73.4712 21.1309C73.1796 21.3496 72.8423 21.5957 72.4595 21.8691C72.0858 22.1426 71.703 22.4206 71.3111 22.7031C70.3996 23.3776 69.3606 24.1432 68.1939 25H66.5943L68.9322 15.5254C68.9231 15.4434 68.8821 15.3431 68.8091 15.2246C68.7453 15.097 68.5949 15.0332 68.358 15.0332C68.2486 15.0332 68.1164 15.0514 67.9615 15.0879C67.8065 15.1243 67.6242 15.1882 67.4146 15.2793C67.0045 15.4616 66.6171 15.6393 66.2525 15.8125C65.897 15.9857 65.5826 16.1361 65.3091 16.2637C64.9992 16.4186 64.7121 16.569 64.4478 16.7148L69.5748 12.9551V12.9414L80.4712 4.94336C80.8814 4.96159 81.3007 4.99805 81.7291 5.05273C82.1574 5.10742 82.5767 5.19857 82.9869 5.32617C83.397 5.44466 83.789 5.60417 84.1627 5.80469C84.5455 5.99609 84.8918 6.23763 85.2017 6.5293ZM80.8951 11.4512C81.0956 10.6309 81.0272 9.9974 80.69 9.55078C80.3619 9.09505 79.7512 8.86719 78.858 8.86719H75.8228L74.5377 14.0625H77.5045C78.3886 14.0625 79.1177 13.8438 79.692 13.4062C80.2753 12.9596 80.6763 12.3079 80.8951 11.4512ZM83.6841 1.62109L69.8619 11.7656L71.5572 4.92969H75.8365C76.0735 4.90234 76.3423 4.86589 76.6431 4.82031C76.953 4.76562 77.2766 4.69727 77.6138 4.61523C77.9602 4.52409 78.3111 4.41471 78.6666 4.28711C79.0311 4.15039 79.3866 3.99089 79.733 3.80859C80.1067 3.59896 80.4804 3.38932 80.8541 3.17969C81.2369 2.97005 81.6015 2.76953 81.9478 2.57812C82.2942 2.38672 82.6132 2.20898 82.9048 2.04492C83.2056 1.88086 83.4654 1.73958 83.6841 1.62109ZM63.9146 29.1426L72.3365 22.9355L71.858 25.0137C71.2382 25.1413 70.5227 25.3783 69.7115 25.7246C68.9823 26.0345 68.1392 26.4538 67.1822 26.9824C66.2343 27.5111 65.1451 28.2311 63.9146 29.1426ZM91.5323 21.1309L101.198 14.0215C100.77 14.4954 100.355 14.9557 99.9542 15.4023C99.7264 15.6667 99.535 15.89 99.38 16.0723C99.2251 16.2454 99.0701 16.4277 98.9152 16.6191C98.7602 16.8014 98.6098 16.9837 98.464 17.166C98.3273 17.3392 98.2088 17.4987 98.1085 17.6445C97.8351 18.0365 97.6163 18.4284 97.4523 18.8203C97.2973 19.2031 97.1834 19.513 97.1105 19.75L95.8116 24.9863H90.5753L91.5323 21.1309ZM94.1847 4.90234L84.8058 11.793C84.8878 11.7109 85.0701 11.5104 85.3527 11.1914C85.6443 10.8724 85.9679 10.5078 86.3234 10.0977C86.6788 9.6875 87.0343 9.26823 87.3898 8.83984C87.7452 8.41146 88.0278 8.04232 88.2374 7.73242C88.4015 7.49544 88.5473 7.25846 88.6749 7.02148C88.8025 6.77539 88.9119 6.54297 89.0031 6.32422C89.1033 6.10547 89.1853 5.90495 89.2491 5.72266C89.3129 5.53125 89.3585 5.37174 89.3859 5.24414L89.4816 4.90234H94.1847ZM98.4503 4.90234H106.954L105.984 8.83984H99.8038L98.2726 15.0332L89.7823 21.2676C90.1925 20.8757 90.5708 20.4746 90.9171 20.0645C91.1267 19.8275 91.2954 19.6224 91.423 19.4492C91.5506 19.276 91.6736 19.0938 91.7921 18.9023C91.9197 18.7109 92.0337 18.5195 92.1339 18.3281C92.2342 18.1276 92.3116 17.9316 92.3663 17.7402L94.5675 8.83984H90.1241L102.073 0.0625C101.162 0.882812 100.392 1.63021 99.7628 2.30469C99.38 2.70573 99.0883 3.0293 98.8878 3.27539C98.6964 3.52148 98.5415 3.75846 98.423 3.98633C98.3045 4.20508 98.2361 4.40104 98.2179 4.57422C98.2088 4.73828 98.2863 4.84766 98.4503 4.90234Z" fill="url(#paint0_linear_49_27)"/>
<defs>
<linearGradient id="paint0_linear_49_27" x1="103" y1="17.5" x2="5" y2="17.5" gradientUnits="userSpaceOnUse">
<stop stop-color="#0098EE"/>
<stop offset="1" stop-color="#0072F8"/>
</linearGradient>
</defs>
</svg>
