<svg width="32" height="32" viewBox="0 0 32 32" fill="none" xmlns="http://www.w3.org/2000/svg">
<path d="M28.3018 26.2055C29.9441 24.231 31.0863 21.8902 31.6318 19.3813C32.1774 16.8724 32.1101 14.269 31.4359 11.7915C30.7616 9.31402 29.5002 7.03523 27.7582 5.14795C26.0162 3.26066 23.845 1.82039 21.4282 0.948975C19.0114 0.077559 16.4201 -0.199366 13.8735 0.141626C11.327 0.482618 8.90006 1.4315 6.7981 2.90799C4.69613 4.38448 2.98095 6.34516 1.79766 8.62414C0.614359 10.9031 -0.00224433 13.4334 6.13818e-06 16.0009C0.000869719 19.7333 1.31709 23.3461 3.71769 26.2055L3.69482 26.2249C3.77487 26.3209 3.86636 26.4032 3.94869 26.4981C4.05161 26.6158 4.16254 26.7266 4.26889 26.8409C4.58908 27.1883 4.91843 27.5219 5.26378 27.8351C5.36898 27.931 5.47762 28.0202 5.58397 28.1116C5.94991 28.427 6.32614 28.7264 6.71609 29.0052C6.76641 29.0395 6.81215 29.0841 6.86246 29.1195V29.1058C9.54078 30.9892 12.7359 32 16.0109 32C19.2859 32 22.481 30.9892 25.1593 29.1058V29.1195C25.2096 29.0841 25.2542 29.0395 25.3057 29.0052C25.6945 28.7252 26.0719 28.427 26.4378 28.1116C26.5441 28.0202 26.6528 27.9299 26.758 27.8351C27.1033 27.5208 27.4327 27.1883 27.7529 26.8409C27.8592 26.7266 27.969 26.6158 28.0731 26.4981C28.1543 26.4032 28.2469 26.3209 28.3269 26.2238L28.3018 26.2055ZM16.0097 6.85899C17.0275 6.85899 18.0224 7.16058 18.8687 7.72563C19.715 8.29067 20.3745 9.09379 20.764 10.0334C21.1535 10.9731 21.2554 12.007 21.0568 13.0045C20.8583 14.002 20.3682 14.9183 19.6485 15.6375C18.9288 16.3566 18.0119 16.8464 17.0137 17.0448C16.0154 17.2432 14.9808 17.1414 14.0405 16.7522C13.1002 16.363 12.2965 15.7039 11.731 14.8582C11.1656 14.0126 10.8638 13.0184 10.8638 12.0013C10.8638 10.6375 11.4059 9.32951 12.371 8.36514C13.336 7.40077 14.6449 6.85899 16.0097 6.85899ZM6.86933 26.2055C6.88916 24.7051 7.49936 23.2727 8.56791 22.2184C9.63646 21.1641 11.0774 20.5726 12.5791 20.5718H19.4404C20.942 20.5726 22.383 21.1641 23.4516 22.2184C24.5201 23.2727 25.1303 24.7051 25.1502 26.2055C22.6422 28.4639 19.3858 29.7138 16.0097 29.7138C12.6337 29.7138 9.37732 28.4639 6.86933 26.2055Z" fill="#59626D"/>
</svg>
